<svg xmlns="http://www.w3.org/2000/svg" xmlns:xlink="http://www.w3.org/1999/xlink" width="762.5" height="487.754" viewBox="0 0 762.5 487.754">
  <defs>
    <clipPath id="clip-path">
      <rect width="760" height="401.88" fill="none"/>
    </clipPath>
    <linearGradient id="linear-gradient" y1="1" x2="1" gradientUnits="objectBoundingBox">
      <stop offset="0" stop-color="#092050"/>
      <stop offset="0.509" stop-color="#6c7793"/>
      <stop offset="1" stop-color="#092050"/>
    </linearGradient>
    <clipPath id="clip-path-2">
      <rect width="487.754" height="720" fill="none"/>
    </clipPath>
  </defs>
  <g id="Group_260" data-name="Group 260" transform="translate(-161 -2739.5)" opacity="0.5">
    <g id="Repeat_Grid_2" data-name="Repeat Grid 2" transform="translate(161 2772)" clip-path="url(#clip-path)">
      <g transform="translate(-297 -2772)">
        <rect id="Rectangle_130" data-name="Rectangle 130" width="773" height="1" transform="translate(297 2772)" fill="url(#linear-gradient)"/>
      </g>
      <g transform="translate(-297 -2726)">
        <rect id="Rectangle_130-2" data-name="Rectangle 130" width="773" height="1" transform="translate(297 2772)" fill="url(#linear-gradient)"/>
      </g>
      <g transform="translate(-297 -2680)">
        <rect id="Rectangle_130-3" data-name="Rectangle 130" width="773" height="1" transform="translate(297 2772)" fill="url(#linear-gradient)"/>
      </g>
      <g transform="translate(-297 -2634)">
        <rect id="Rectangle_130-4" data-name="Rectangle 130" width="773" height="1" transform="translate(297 2772)" fill="url(#linear-gradient)"/>
      </g>
      <g transform="translate(-297 -2588)">
        <rect id="Rectangle_130-5" data-name="Rectangle 130" width="773" height="1" transform="translate(297 2772)" fill="url(#linear-gradient)"/>
      </g>
      <g transform="translate(-297 -2542)">
        <rect id="Rectangle_130-6" data-name="Rectangle 130" width="773" height="1" transform="translate(297 2772)" fill="url(#linear-gradient)"/>
      </g>
      <g transform="translate(-297 -2496)">
        <rect id="Rectangle_130-7" data-name="Rectangle 130" width="773" height="1" transform="translate(297 2772)" fill="url(#linear-gradient)"/>
      </g>
      <g transform="translate(-297 -2450)">
        <rect id="Rectangle_130-8" data-name="Rectangle 130" width="773" height="1" transform="translate(297 2772)" fill="url(#linear-gradient)"/>
      </g>
      <g transform="translate(-297 -2404)">
        <rect id="Rectangle_130-9" data-name="Rectangle 130" width="773" height="1" transform="translate(297 2772)" fill="url(#linear-gradient)"/>
      </g>
    </g>
    <g id="Repeat_Grid_3" data-name="Repeat Grid 3" transform="translate(923.5 2739.5) rotate(90)" clip-path="url(#clip-path-2)">
      <g transform="translate(-297 -2772)">
        <rect id="Rectangle_130-10" data-name="Rectangle 130" width="524" height="1" transform="translate(297 2772)" fill="url(#linear-gradient)"/>
      </g>
      <g transform="translate(-297 -2726)">
        <rect id="Rectangle_130-11" data-name="Rectangle 130" width="524" height="1" transform="translate(297 2772)" fill="url(#linear-gradient)"/>
      </g>
      <g transform="translate(-297 -2680)">
        <rect id="Rectangle_130-12" data-name="Rectangle 130" width="524" height="1" transform="translate(297 2772)" fill="url(#linear-gradient)"/>
      </g>
      <g transform="translate(-297 -2634)">
        <rect id="Rectangle_130-13" data-name="Rectangle 130" width="524" height="1" transform="translate(297 2772)" fill="url(#linear-gradient)"/>
      </g>
      <g transform="translate(-297 -2588)">
        <rect id="Rectangle_130-14" data-name="Rectangle 130" width="524" height="1" transform="translate(297 2772)" fill="url(#linear-gradient)"/>
      </g>
      <g transform="translate(-297 -2542)">
        <rect id="Rectangle_130-15" data-name="Rectangle 130" width="524" height="1" transform="translate(297 2772)" fill="url(#linear-gradient)"/>
      </g>
      <g transform="translate(-297 -2496)">
        <rect id="Rectangle_130-16" data-name="Rectangle 130" width="524" height="1" transform="translate(297 2772)" fill="url(#linear-gradient)"/>
      </g>
      <g transform="translate(-297 -2450)">
        <rect id="Rectangle_130-17" data-name="Rectangle 130" width="524" height="1" transform="translate(297 2772)" fill="url(#linear-gradient)"/>
      </g>
      <g transform="translate(-297 -2404)">
        <rect id="Rectangle_130-18" data-name="Rectangle 130" width="524" height="1" transform="translate(297 2772)" fill="url(#linear-gradient)"/>
      </g>
      <g transform="translate(-297 -2358)">
        <rect id="Rectangle_130-19" data-name="Rectangle 130" width="524" height="1" transform="translate(297 2772)" fill="url(#linear-gradient)"/>
      </g>
      <g transform="translate(-297 -2312)">
        <rect id="Rectangle_130-20" data-name="Rectangle 130" width="524" height="1" transform="translate(297 2772)" fill="url(#linear-gradient)"/>
      </g>
      <g transform="translate(-297 -2266)">
        <rect id="Rectangle_130-21" data-name="Rectangle 130" width="524" height="1" transform="translate(297 2772)" fill="url(#linear-gradient)"/>
      </g>
      <g transform="translate(-297 -2220)">
        <rect id="Rectangle_130-22" data-name="Rectangle 130" width="524" height="1" transform="translate(297 2772)" fill="url(#linear-gradient)"/>
      </g>
      <g transform="translate(-297 -2174)">
        <rect id="Rectangle_130-23" data-name="Rectangle 130" width="524" height="1" transform="translate(297 2772)" fill="url(#linear-gradient)"/>
      </g>
      <g transform="translate(-297 -2128)">
        <rect id="Rectangle_130-24" data-name="Rectangle 130" width="524" height="1" transform="translate(297 2772)" fill="url(#linear-gradient)"/>
      </g>
      <g transform="translate(-297 -2082)">
        <rect id="Rectangle_130-25" data-name="Rectangle 130" width="524" height="1" transform="translate(297 2772)" fill="url(#linear-gradient)"/>
      </g>
    </g>
  </g>
</svg>
