<svg id="Group_177" data-name="Group 177" xmlns="http://www.w3.org/2000/svg" xmlns:xlink="http://www.w3.org/1999/xlink" width="61.472" height="64" viewBox="0 0 61.472 64">
  <defs>
    <clipPath id="clip-path">
      <rect id="Rectangle_36" data-name="Rectangle 36" width="61.472" height="64" fill="#0c55be"/>
    </clipPath>
  </defs>
  <g id="Group_170" data-name="Group 170" transform="translate(0 0)">
    <g id="Group_108" data-name="Group 108">
      <g id="Mask_Group_16" data-name="Mask Group 16" clip-path="url(#clip-path)">
        <path id="target" d="M30.736,0A30.736,30.736,0,1,0,61.472,30.736,30.746,30.746,0,0,0,30.736,0Zm0,1.281A29.455,29.455,0,1,1,1.281,30.736,29.446,29.446,0,0,1,30.736,1.281Zm17.318,8.965v0h-.061a.64.64,0,0,0-.421.184L43.73,14.274a.64.64,0,0,0-.154.656l.515,1.546L40.07,20.5a15.576,15.576,0,1,0,.905.907L45,17.382l1.546.515a.64.64,0,0,0,.656-.155L51.04,13.9a.64.64,0,0,0-.251-1.062L49.171,12.3l-.538-1.617A.64.64,0,0,0,48.054,10.245Zm-.31,1.829.312.937a.64.64,0,0,0,.406.406l.937.312-2.829,2.829-1.241-.414L44.916,14.9l2.83-2.83Zm-18.16,5.6A14.151,14.151,0,0,1,39.168,21.4l-1.834,1.834a11.7,11.7,0,1,0,.905.908l1.834-1.836a14.208,14.208,0,1,1-10.487-4.633Zm0,5.174a9.044,9.044,0,0,1,5.922,2.221l-1.829,1.829a6.462,6.462,0,1,0,.905.905l1.834-1.834a9.043,9.043,0,1,1-6.832-3.121Zm0,5.167a3.877,3.877,0,0,1,2.249.725L29.91,30.66a1.243,1.243,0,0,0-.324-.064,1.292,1.292,0,1,0,1.293,1.293,1.259,1.259,0,0,0-.065-.32l1.925-1.929a3.872,3.872,0,1,1-3.153-1.629Z" transform="translate(0 1.264)" fill="#0c55be"/>
      </g>
    </g>
  </g>
</svg>
